<mxfile host="Electron" agent="Mozilla/5.0 (Windows NT 10.0; Win64; x64) AppleWebKit/537.36 (KHTML, like Gecko) draw.io/28.2.5 Chrome/138.0.7204.251 Electron/37.6.1 Safari/537.36" version="28.2.5">
  <diagram name="Seite-1" id="be_fwyhC0SOCOfb4ao8I">
    <mxGraphModel dx="1090" dy="1991" grid="1" gridSize="10" guides="1" tooltips="1" connect="1" arrows="1" fold="1" page="1" pageScale="1" pageWidth="827" pageHeight="1169" math="0" shadow="0">
      <root>
        <mxCell id="0" />
        <mxCell id="1" parent="0" />
        <mxCell id="PmfHKEvVSBCFJBkkiV-i-52" value="" style="rounded=1;whiteSpace=wrap;html=1;" vertex="1" parent="1">
          <mxGeometry x="560" y="-80" width="180" height="1600" as="geometry" />
        </mxCell>
        <mxCell id="PmfHKEvVSBCFJBkkiV-i-50" value="" style="rounded=1;whiteSpace=wrap;html=1;" vertex="1" parent="1">
          <mxGeometry x="310" y="-80" width="180" height="1600" as="geometry" />
        </mxCell>
        <mxCell id="PmfHKEvVSBCFJBkkiV-i-48" value="" style="rounded=1;whiteSpace=wrap;html=1;" vertex="1" parent="1">
          <mxGeometry x="50" y="-80" width="180" height="1600" as="geometry" />
        </mxCell>
        <mxCell id="PmfHKEvVSBCFJBkkiV-i-10" style="edgeStyle=orthogonalEdgeStyle;rounded=0;orthogonalLoop=1;jettySize=auto;html=1;" edge="1" parent="1" source="PmfHKEvVSBCFJBkkiV-i-1" target="PmfHKEvVSBCFJBkkiV-i-7">
          <mxGeometry relative="1" as="geometry" />
        </mxCell>
        <mxCell id="PmfHKEvVSBCFJBkkiV-i-1" value="3 Orks / 3 Elben" style="rounded=1;whiteSpace=wrap;html=1;" vertex="1" parent="1">
          <mxGeometry x="80" y="180" width="120" height="60" as="geometry" />
        </mxCell>
        <mxCell id="PmfHKEvVSBCFJBkkiV-i-3" style="edgeStyle=orthogonalEdgeStyle;rounded=0;orthogonalLoop=1;jettySize=auto;html=1;" edge="1" parent="1" source="PmfHKEvVSBCFJBkkiV-i-2" target="PmfHKEvVSBCFJBkkiV-i-1">
          <mxGeometry relative="1" as="geometry" />
        </mxCell>
        <mxCell id="PmfHKEvVSBCFJBkkiV-i-2" value="Start" style="ellipse;whiteSpace=wrap;html=1;aspect=fixed;" vertex="1" parent="1">
          <mxGeometry x="100" y="10" width="80" height="80" as="geometry" />
        </mxCell>
        <mxCell id="PmfHKEvVSBCFJBkkiV-i-13" style="edgeStyle=orthogonalEdgeStyle;rounded=0;orthogonalLoop=1;jettySize=auto;html=1;entryX=1;entryY=0.5;entryDx=0;entryDy=0;" edge="1" parent="1" source="PmfHKEvVSBCFJBkkiV-i-4" target="PmfHKEvVSBCFJBkkiV-i-11">
          <mxGeometry relative="1" as="geometry" />
        </mxCell>
        <mxCell id="PmfHKEvVSBCFJBkkiV-i-4" value="1 Elbe" style="rounded=1;whiteSpace=wrap;html=1;" vertex="1" parent="1">
          <mxGeometry x="590" y="300" width="120" height="60" as="geometry" />
        </mxCell>
        <mxCell id="PmfHKEvVSBCFJBkkiV-i-9" style="edgeStyle=orthogonalEdgeStyle;rounded=0;orthogonalLoop=1;jettySize=auto;html=1;" edge="1" parent="1" source="PmfHKEvVSBCFJBkkiV-i-7" target="PmfHKEvVSBCFJBkkiV-i-4">
          <mxGeometry relative="1" as="geometry" />
        </mxCell>
        <mxCell id="PmfHKEvVSBCFJBkkiV-i-7" value="1 Ork / 1 Elbe" style="rounded=1;whiteSpace=wrap;html=1;" vertex="1" parent="1">
          <mxGeometry x="340" y="240" width="120" height="60" as="geometry" />
        </mxCell>
        <mxCell id="PmfHKEvVSBCFJBkkiV-i-14" style="edgeStyle=orthogonalEdgeStyle;rounded=0;orthogonalLoop=1;jettySize=auto;html=1;entryX=1;entryY=0.5;entryDx=0;entryDy=0;" edge="1" parent="1" source="PmfHKEvVSBCFJBkkiV-i-11" target="PmfHKEvVSBCFJBkkiV-i-12">
          <mxGeometry relative="1" as="geometry" />
        </mxCell>
        <mxCell id="PmfHKEvVSBCFJBkkiV-i-11" value="1 Ork" style="rounded=1;whiteSpace=wrap;html=1;" vertex="1" parent="1">
          <mxGeometry x="340" y="360" width="120" height="60" as="geometry" />
        </mxCell>
        <mxCell id="PmfHKEvVSBCFJBkkiV-i-16" style="edgeStyle=orthogonalEdgeStyle;rounded=0;orthogonalLoop=1;jettySize=auto;html=1;" edge="1" parent="1" source="PmfHKEvVSBCFJBkkiV-i-12" target="PmfHKEvVSBCFJBkkiV-i-15">
          <mxGeometry relative="1" as="geometry" />
        </mxCell>
        <mxCell id="PmfHKEvVSBCFJBkkiV-i-12" value="2 Orks / 2 Elben" style="rounded=1;whiteSpace=wrap;html=1;" vertex="1" parent="1">
          <mxGeometry x="80" y="420" width="120" height="60" as="geometry" />
        </mxCell>
        <mxCell id="PmfHKEvVSBCFJBkkiV-i-18" style="edgeStyle=orthogonalEdgeStyle;rounded=0;orthogonalLoop=1;jettySize=auto;html=1;" edge="1" parent="1" source="PmfHKEvVSBCFJBkkiV-i-15" target="PmfHKEvVSBCFJBkkiV-i-17">
          <mxGeometry relative="1" as="geometry" />
        </mxCell>
        <mxCell id="PmfHKEvVSBCFJBkkiV-i-15" value="2 Orks" style="rounded=1;whiteSpace=wrap;html=1;" vertex="1" parent="1">
          <mxGeometry x="340" y="480" width="120" height="60" as="geometry" />
        </mxCell>
        <mxCell id="PmfHKEvVSBCFJBkkiV-i-20" style="edgeStyle=orthogonalEdgeStyle;rounded=0;orthogonalLoop=1;jettySize=auto;html=1;" edge="1" parent="1" source="PmfHKEvVSBCFJBkkiV-i-17" target="PmfHKEvVSBCFJBkkiV-i-19">
          <mxGeometry relative="1" as="geometry" />
        </mxCell>
        <mxCell id="PmfHKEvVSBCFJBkkiV-i-17" value="1 Ork / 1 Elbe" style="rounded=1;whiteSpace=wrap;html=1;" vertex="1" parent="1">
          <mxGeometry x="590" y="540" width="120" height="60" as="geometry" />
        </mxCell>
        <mxCell id="PmfHKEvVSBCFJBkkiV-i-22" style="edgeStyle=orthogonalEdgeStyle;rounded=0;orthogonalLoop=1;jettySize=auto;html=1;entryX=1;entryY=0.5;entryDx=0;entryDy=0;" edge="1" parent="1" source="PmfHKEvVSBCFJBkkiV-i-19" target="PmfHKEvVSBCFJBkkiV-i-21">
          <mxGeometry relative="1" as="geometry" />
        </mxCell>
        <mxCell id="PmfHKEvVSBCFJBkkiV-i-19" value="1 Ork" style="rounded=1;whiteSpace=wrap;html=1;" vertex="1" parent="1">
          <mxGeometry x="340" y="600" width="120" height="60" as="geometry" />
        </mxCell>
        <mxCell id="PmfHKEvVSBCFJBkkiV-i-25" style="edgeStyle=orthogonalEdgeStyle;rounded=0;orthogonalLoop=1;jettySize=auto;html=1;entryX=0;entryY=0.5;entryDx=0;entryDy=0;" edge="1" parent="1" source="PmfHKEvVSBCFJBkkiV-i-21" target="PmfHKEvVSBCFJBkkiV-i-23">
          <mxGeometry relative="1" as="geometry" />
        </mxCell>
        <mxCell id="PmfHKEvVSBCFJBkkiV-i-21" value="1 Ork / 2 Elben" style="rounded=1;whiteSpace=wrap;html=1;" vertex="1" parent="1">
          <mxGeometry x="80" y="660" width="120" height="60" as="geometry" />
        </mxCell>
        <mxCell id="PmfHKEvVSBCFJBkkiV-i-26" style="edgeStyle=orthogonalEdgeStyle;rounded=0;orthogonalLoop=1;jettySize=auto;html=1;" edge="1" parent="1" source="PmfHKEvVSBCFJBkkiV-i-23" target="PmfHKEvVSBCFJBkkiV-i-24">
          <mxGeometry relative="1" as="geometry" />
        </mxCell>
        <mxCell id="PmfHKEvVSBCFJBkkiV-i-23" value="1 Ork / 1 Elbe" style="rounded=1;whiteSpace=wrap;html=1;" vertex="1" parent="1">
          <mxGeometry x="340" y="720" width="120" height="60" as="geometry" />
        </mxCell>
        <mxCell id="PmfHKEvVSBCFJBkkiV-i-29" style="edgeStyle=orthogonalEdgeStyle;rounded=0;orthogonalLoop=1;jettySize=auto;html=1;entryX=1;entryY=0.5;entryDx=0;entryDy=0;" edge="1" parent="1" source="PmfHKEvVSBCFJBkkiV-i-24" target="PmfHKEvVSBCFJBkkiV-i-27">
          <mxGeometry relative="1" as="geometry" />
        </mxCell>
        <mxCell id="PmfHKEvVSBCFJBkkiV-i-24" value="1 Ork / 2 Elben" style="rounded=1;whiteSpace=wrap;html=1;" vertex="1" parent="1">
          <mxGeometry x="590" y="780" width="120" height="60" as="geometry" />
        </mxCell>
        <mxCell id="PmfHKEvVSBCFJBkkiV-i-31" style="edgeStyle=orthogonalEdgeStyle;rounded=0;orthogonalLoop=1;jettySize=auto;html=1;" edge="1" parent="1" source="PmfHKEvVSBCFJBkkiV-i-27" target="PmfHKEvVSBCFJBkkiV-i-30">
          <mxGeometry relative="1" as="geometry" />
        </mxCell>
        <mxCell id="PmfHKEvVSBCFJBkkiV-i-27" value="1 Ork" style="rounded=1;whiteSpace=wrap;html=1;" vertex="1" parent="1">
          <mxGeometry x="340" y="840" width="120" height="60" as="geometry" />
        </mxCell>
        <mxCell id="PmfHKEvVSBCFJBkkiV-i-34" style="edgeStyle=orthogonalEdgeStyle;rounded=0;orthogonalLoop=1;jettySize=auto;html=1;" edge="1" parent="1" source="PmfHKEvVSBCFJBkkiV-i-30" target="PmfHKEvVSBCFJBkkiV-i-33">
          <mxGeometry relative="1" as="geometry" />
        </mxCell>
        <mxCell id="PmfHKEvVSBCFJBkkiV-i-30" value="1 Ork / 1 Elbe" style="rounded=1;whiteSpace=wrap;html=1;" vertex="1" parent="1">
          <mxGeometry x="80" y="900" width="120" height="60" as="geometry" />
        </mxCell>
        <mxCell id="PmfHKEvVSBCFJBkkiV-i-36" style="edgeStyle=orthogonalEdgeStyle;rounded=0;orthogonalLoop=1;jettySize=auto;html=1;" edge="1" parent="1" source="PmfHKEvVSBCFJBkkiV-i-33" target="PmfHKEvVSBCFJBkkiV-i-35">
          <mxGeometry relative="1" as="geometry" />
        </mxCell>
        <mxCell id="PmfHKEvVSBCFJBkkiV-i-33" value="2 Orks" style="rounded=1;whiteSpace=wrap;html=1;" vertex="1" parent="1">
          <mxGeometry x="340" y="960" width="120" height="60" as="geometry" />
        </mxCell>
        <mxCell id="PmfHKEvVSBCFJBkkiV-i-38" style="edgeStyle=orthogonalEdgeStyle;rounded=0;orthogonalLoop=1;jettySize=auto;html=1;entryX=1;entryY=0.5;entryDx=0;entryDy=0;" edge="1" parent="1" source="PmfHKEvVSBCFJBkkiV-i-35" target="PmfHKEvVSBCFJBkkiV-i-37">
          <mxGeometry relative="1" as="geometry" />
        </mxCell>
        <mxCell id="PmfHKEvVSBCFJBkkiV-i-35" value="2 Orks / 2 Elben" style="rounded=1;whiteSpace=wrap;html=1;" vertex="1" parent="1">
          <mxGeometry x="590" y="1020" width="120" height="60" as="geometry" />
        </mxCell>
        <mxCell id="PmfHKEvVSBCFJBkkiV-i-40" style="edgeStyle=orthogonalEdgeStyle;rounded=0;orthogonalLoop=1;jettySize=auto;html=1;entryX=1;entryY=0.5;entryDx=0;entryDy=0;" edge="1" parent="1" source="PmfHKEvVSBCFJBkkiV-i-37" target="PmfHKEvVSBCFJBkkiV-i-39">
          <mxGeometry relative="1" as="geometry" />
        </mxCell>
        <mxCell id="PmfHKEvVSBCFJBkkiV-i-37" value="1 Ork" style="rounded=1;whiteSpace=wrap;html=1;" vertex="1" parent="1">
          <mxGeometry x="340" y="1080" width="120" height="60" as="geometry" />
        </mxCell>
        <mxCell id="PmfHKEvVSBCFJBkkiV-i-42" style="edgeStyle=orthogonalEdgeStyle;rounded=0;orthogonalLoop=1;jettySize=auto;html=1;entryX=0;entryY=0.5;entryDx=0;entryDy=0;" edge="1" parent="1" source="PmfHKEvVSBCFJBkkiV-i-39" target="PmfHKEvVSBCFJBkkiV-i-41">
          <mxGeometry relative="1" as="geometry" />
        </mxCell>
        <mxCell id="PmfHKEvVSBCFJBkkiV-i-39" value="1 Elbe" style="rounded=1;whiteSpace=wrap;html=1;" vertex="1" parent="1">
          <mxGeometry x="80" y="1140" width="120" height="60" as="geometry" />
        </mxCell>
        <mxCell id="PmfHKEvVSBCFJBkkiV-i-44" style="edgeStyle=orthogonalEdgeStyle;rounded=0;orthogonalLoop=1;jettySize=auto;html=1;entryX=0;entryY=0.5;entryDx=0;entryDy=0;" edge="1" parent="1" source="PmfHKEvVSBCFJBkkiV-i-41" target="PmfHKEvVSBCFJBkkiV-i-43">
          <mxGeometry relative="1" as="geometry" />
        </mxCell>
        <mxCell id="PmfHKEvVSBCFJBkkiV-i-41" value="1 Ork / 1 Elbe" style="rounded=1;whiteSpace=wrap;html=1;" vertex="1" parent="1">
          <mxGeometry x="340" y="1200" width="120" height="60" as="geometry" />
        </mxCell>
        <mxCell id="PmfHKEvVSBCFJBkkiV-i-47" style="edgeStyle=orthogonalEdgeStyle;rounded=0;orthogonalLoop=1;jettySize=auto;html=1;entryX=0.5;entryY=0;entryDx=0;entryDy=0;" edge="1" parent="1" source="PmfHKEvVSBCFJBkkiV-i-43" target="PmfHKEvVSBCFJBkkiV-i-45">
          <mxGeometry relative="1" as="geometry" />
        </mxCell>
        <mxCell id="PmfHKEvVSBCFJBkkiV-i-43" value="3 Orks / 3 Elben" style="rounded=1;whiteSpace=wrap;html=1;" vertex="1" parent="1">
          <mxGeometry x="590" y="1260" width="120" height="60" as="geometry" />
        </mxCell>
        <mxCell id="PmfHKEvVSBCFJBkkiV-i-45" value="" style="ellipse;whiteSpace=wrap;html=1;aspect=fixed;" vertex="1" parent="1">
          <mxGeometry x="610" y="1400" width="80" height="80" as="geometry" />
        </mxCell>
        <mxCell id="PmfHKEvVSBCFJBkkiV-i-46" value="Ende" style="ellipse;whiteSpace=wrap;html=1;aspect=fixed;" vertex="1" parent="1">
          <mxGeometry x="615" y="1405" width="70" height="70" as="geometry" />
        </mxCell>
        <mxCell id="PmfHKEvVSBCFJBkkiV-i-49" value="Linke Uferseite" style="text;html=1;align=center;verticalAlign=middle;resizable=0;points=[];autosize=1;strokeColor=none;fillColor=none;" vertex="1" parent="1">
          <mxGeometry x="90" y="-60" width="100" height="30" as="geometry" />
        </mxCell>
        <mxCell id="PmfHKEvVSBCFJBkkiV-i-51" value="Über den Fluss mit dem Pferd" style="text;html=1;align=center;verticalAlign=middle;resizable=0;points=[];autosize=1;strokeColor=none;fillColor=none;" vertex="1" parent="1">
          <mxGeometry x="310" y="-60" width="180" height="30" as="geometry" />
        </mxCell>
        <mxCell id="PmfHKEvVSBCFJBkkiV-i-53" value="Rechte Uferseite" style="text;html=1;align=center;verticalAlign=middle;resizable=0;points=[];autosize=1;strokeColor=none;fillColor=none;" vertex="1" parent="1">
          <mxGeometry x="595" y="-60" width="110" height="30" as="geometry" />
        </mxCell>
      </root>
    </mxGraphModel>
  </diagram>
</mxfile>
